<?xml version="1.0" encoding="UTF-8"?>
<svg width="100px" height="100px" viewBox="0 0 100 100" version="1.1" xmlns="http://www.w3.org/2000/svg" xmlns:xlink="http://www.w3.org/1999/xlink">
    <!-- Generator: Sketch 52.4 (67378) - http://www.bohemiancoding.com/sketch -->
    <title>github</title>
    <desc>Created with Sketch.</desc>
    <g id="github" stroke="none" stroke-width="1" fill="none" fill-rule="evenodd">
        <g transform="translate(0.000000, 1.000000)" fill="#FFFFFF" id="Path">
            <path d="M50,0 C22.375,0 0,22.375 0,50 C0,72.125 14.3125,90.8125 34.1875,97.4375 C36.6875,97.875 37.625,96.375 37.625,95.0625 C37.625,93.875 37.5625,89.9375 37.5625,85.75 C25,88.0625 21.75,82.6875 20.75,79.875 C20.1875,78.4375 17.75,74 15.625,72.8125 C13.875,71.875 11.375,69.5625 15.5625,69.5 C19.5,69.4375 22.3125,73.125 23.25,74.625 C27.75,82.1875 34.9375,80.0625 37.8125,78.75 C38.25,75.5 39.5625,73.3125 41,72.0625 C29.875,70.8125 18.25,66.5 18.25,47.375 C18.25,41.9375 20.1875,37.4375 23.375,33.9375 C22.875,32.6875 21.125,27.5625 23.875,20.6875 C23.875,20.6875 28.0625,19.375 37.625,25.8125 C41.625,24.6875 45.875,24.125 50.125,24.125 C54.375,24.125 58.625,24.6875 62.625,25.8125 C72.1875,19.3125 76.375,20.6875 76.375,20.6875 C79.125,27.5625 77.375,32.6875 76.875,33.9375 C80.0625,37.4375 82,41.875 82,47.375 C82,66.5625 70.3125,70.8125 59.1875,72.0625 C61,73.625 62.5625,76.625 62.5625,81.3125 C62.5625,88 62.5,93.375 62.5,95.0625 C62.5,96.375 63.4375,97.9375 65.9375,97.4375 C86.2902886,90.5666019 99.9945082,71.4812759 100,50 C100,22.375 77.625,1.11022302e-14 50,0 Z"></path>
        </g>
    </g>
</svg>