<?xml version="1.0" encoding="utf-8"?>
<!-- Generator: Adobe Illustrator 25.2.1, SVG Export Plug-In . SVG Version: 6.00 Build 0)  -->
<svg version="1.1" id="图层_1" xmlns="http://www.w3.org/2000/svg" x="0px"
     y="0px"
     viewBox="0 0 600 600" style="enable-background:new 0 0 600 600;" xml:space="preserve">
<style type="text/css">
	.st0{fill:#FFFFFF;}
</style>
  <g>
	<path class="st0" d="M388.75,321.6l-12.38,22.7c-4.12,7.58-8.95,15.13-13.75,22.02c13.75-1.37,27.51-4.12,40.6-6.89
		C399.07,347.05,394.25,333.99,388.75,321.6z"/>
    <path class="st0" d="M325.45,212.92c-8.26-11.01-16.5-21.33-25.45-30.96c-8.26,8.95-17.21,19.27-25.45,30.96
		C291.05,212.23,308.26,212.23,325.45,212.92z"/>
    <path class="st0" d="M363.3,234.23c4.12,6.89,8.95,13.75,13.07,21.33l12.38,22.7c5.49-11.69,10.32-24.08,13.75-37.14
		C390.13,238.37,377.06,236.31,363.3,234.23z"/>
    <path class="st0" d="M259.4,368.38c12.38,0.69,25.45,1.37,39.2,1.37c13.75,0,26.82-0.69,39.91-1.37
		c6.89-11.01,13.75-22.02,20.64-33.71c6.89-11.69,13.07-23.39,18.58-35.08c-5.49-12.38-12.38-24.08-18.58-35.08
		c-6.2-11.01-13.07-22.02-20.64-33.02c-12.38-0.69-26.14-1.37-39.2-1.37c-13.07,0-26.14,0.69-39.2,1.37
		c-6.89,11.01-13.75,22.02-20.64,33.71c-6.89,11.69-13.07,23.39-18.58,35.08c6.2,11.69,10.32,22.7,17.21,34.4
		S251.85,357.38,259.4,368.38z M300,261.07c21.33,0,39.2,17.9,39.2,39.2c0,21.31-17.21,39.2-39.2,39.2s-39.2-17.9-39.2-39.2
		C260.8,278.97,278.67,261.07,300,261.07z"/>
    <path class="st0" d="M408.02,223.93c0.69-3.43,1.37-6.2,2.06-8.95c8.95-44.72,3.43-78.43-11.01-86.69
		c-13.75-7.58-43.35,2.75-75.68,30.96c-3.43,3.43-6.89,6.2-9.64,10.32c13.07,13.75,25.45,29.59,36.46,45.41
		C369.48,216.35,388.75,219.78,408.02,223.93z"/>
    <path class="st0" d="M237.38,366.32c-4.81-6.89-9.64-14.44-13.75-22.02c-4.12-6.89-8.26-14.44-12.38-22.7
		c-5.49,13.07-10.32,26.14-13.75,38.52C210.56,362.89,223.63,364.95,237.38,366.32z"/>
    <path class="st0" d="M236.7,234.23c-13.75,2.06-26.82,4.12-39.2,6.89c4.12,12.38,8.26,24.76,13.75,37.83
		c4.12-8.26,8.26-15.13,12.38-22.7C227.77,248.69,231.89,241.11,236.7,234.23z"/>
    <path class="st0" d="M433.47,249.38c-4.12-1.37-8.26-2.75-13.07-4.12c-6.2,18.58-13.07,37.14-21.33,54.35
		c8.26,17.9,15.81,36.46,22.02,55.04c2.75-0.69,5.49-1.37,7.58-2.06c43.35-14.44,72.92-35.77,72.92-52.98
		C501.58,283.77,473.36,263.13,433.47,249.38z"/>
    <path class="st0" d="M408.02,377.33c-19.27,4.12-38.52,7.58-58.47,8.95c-11.01,16.5-23.39,31.65-36.46,46.09
		c4.12,3.43,7.58,6.2,11.01,9.64c31.65,27.51,60.53,37.83,74.31,29.59c8.26-6.2,13.75-16.5,14.44-26.82l0,0
		c2.75-18.58,2.06-38.52-2.75-57.1L408.02,377.33z"/>
    <path class="st0" d="M192.66,223.24c19.27-4.12,38.52-6.89,57.79-8.95c11.69-15.81,24.08-30.96,37.14-45.41
		c-2.75-2.06-4.81-4.12-6.89-6.2c-33.71-30.28-66.05-41.97-80.49-33.71c-13.07,8.26-18.58,39.2-10.32,81.18
		C190.6,214.29,191.29,219.1,192.66,223.24z"/>
    <path class="st0" d="M300,5.91C137.58,5.91,5.91,137.58,5.91,300S137.58,594.09,300,594.09S594.09,462.42,594.09,300
		S462.42,5.91,300,5.91z M434.16,369.07c-2.75,1.37-5.49,2.06-8.26,2.75c1.37,4.12,2.06,8.26,2.75,11.69
		c10.32,49.53,2.75,90.13-20.64,103.88c-22.7,13.07-59.16,0-95.62-31.65c-4.12-3.43-8.26-6.89-11.69-10.32
		c-2.75,2.75-6.2,5.49-8.95,8.26c-37.83,33.71-77.06,47.47-100.45,33.71c-22.7-13.07-29.59-50.92-20.64-98.39
		c0.69-5.49,2.06-10.32,3.43-15.81c-4.12-0.69-7.58-2.06-11.69-3.43c-47.47-16.5-82.55-43.35-82.55-70.17
		c0-25.45,33.02-50.92,79.12-67.42c4.81-1.37,10.32-3.43,15.81-4.81c-1.37-4.81-2.75-9.64-3.43-14.44
		c-9.64-48.84-2.75-87.38,19.96-100.45c23.39-13.75,62.62,0.69,101.82,35.77c2.06,2.75,4.81,4.81,6.89,6.89
		c3.43-3.43,7.58-6.2,11.01-9.64c37.14-32.34,74.31-46.09,97.01-33.02c23.39,13.75,30.28,55.04,19.96,105.94
		c-0.69,3.43-1.37,6.2-2.06,9.64c4.81,1.37,8.95,2.75,13.75,4.12c46.78,16.5,80.49,41.97,80.49,67.42
		C520.16,327.12,484.37,353.94,434.16,369.07z"/>
    <path class="st0" d="M300,389.03c-8.95,0-17.21-0.69-25.45-0.69c8.95,11.01,17.21,21.33,26.14,30.96
		c8.95-10.32,17.21-20.64,25.45-30.96C317.9,389.03,308.95,389.03,300,389.03z"/>
    <path class="st0" d="M191.98,378.02c-1.37,4.81-2.75,9.64-3.43,14.44c-7.58,40.6-2.06,70.86,11.69,79.12
		c9.64,3.43,20.64,3.43,30.28-1.37c17.9-6.89,34.4-17.21,48.84-30.28c2.75-2.06,5.49-4.81,8.26-7.58
		c-13.07-14.44-26.14-30.28-37.14-46.09C230.52,384.91,211.25,382.16,191.98,378.02z"/>
    <path class="st0" d="M179.6,245.94c-5.49,1.37-10.32,2.75-15.13,4.81c-39.2,13.75-66.74,33.71-66.74,49.53
		c2.06,10.32,7.58,19.27,16.5,25.45c15.13,11.69,35.77,21.33,54.35,26.82c4.12,1.37,7.58,2.06,11.01,3.43
		c5.49-19.27,13.07-37.83,21.33-55.04C192.66,283.09,185.8,264.5,179.6,245.94z"/>
</g>
</svg>
